<svg width="258" height="182" viewBox="0 0 258 182" fill="none" xmlns="http://www.w3.org/2000/svg">
<rect x="0.27044" y="0.27044" width="257.459" height="181.459" rx="6.22013" fill="white"/>
<rect x="0.27044" y="0.27044" width="257.459" height="181.459" rx="6.22013" stroke="#D7D8D6" stroke-width="0.540881"/>
<path d="M17.6445 19.9812C17.5753 19.9812 17.5147 19.9574 17.4628 19.9098C17.4152 19.8622 17.3914 19.8016 17.3914 19.7281V15.5092L16.7424 15.7364C16.6948 15.758 16.6515 15.7688 16.6125 15.7688C16.539 15.7688 16.4784 15.745 16.4308 15.6974C16.3832 15.6498 16.3594 15.5914 16.3594 15.5222C16.3594 15.4703 16.3702 15.4227 16.3919 15.3794C16.4178 15.3361 16.4611 15.3037 16.5217 15.282L17.5212 14.938C17.5429 14.9294 17.5645 14.9229 17.5861 14.9186C17.6121 14.9099 17.6337 14.9056 17.651 14.9056C17.7246 14.9056 17.783 14.9315 17.8263 14.9835C17.8739 15.0311 17.8977 15.0895 17.8977 15.1587V19.7281C17.8977 19.8016 17.8739 19.8622 17.8263 19.9098C17.7787 19.9574 17.7181 19.9812 17.6445 19.9812ZM20.3961 19.9812C20.0759 19.9812 19.8011 19.8795 19.5718 19.6761C19.3425 19.4728 19.1672 19.1829 19.0461 18.8064C18.9292 18.4256 18.8708 17.9691 18.8708 17.4369C18.8708 16.9133 18.9292 16.4612 19.0461 16.0804C19.1672 15.6996 19.3425 15.4075 19.5718 15.2041C19.8011 15.0008 20.0759 14.8991 20.3961 14.8991C20.7249 14.8991 21.0019 15.0029 21.2269 15.2106C21.4562 15.414 21.6293 15.7061 21.7461 16.0869C21.8673 16.4676 21.9279 16.9177 21.9279 17.4369C21.9279 17.9648 21.8673 18.4191 21.7461 18.7999C21.6293 19.1764 21.4562 19.4684 21.2269 19.6761C21.0019 19.8795 20.7249 19.9812 20.3961 19.9812ZM20.3961 19.4749C20.6297 19.4749 20.8223 19.3884 20.9737 19.2153C21.1252 19.0379 21.2377 18.7956 21.3113 18.4884C21.3848 18.1812 21.4216 17.8307 21.4216 17.4369C21.4216 17.0475 21.3827 16.7013 21.3048 16.3984C21.2312 16.0912 21.1187 15.8489 20.9673 15.6715C20.8158 15.4941 20.6254 15.4054 20.3961 15.4054C20.1668 15.4054 19.9764 15.4941 19.8249 15.6715C19.6778 15.8445 19.5653 16.0847 19.4874 16.3919C19.4138 16.6991 19.3771 17.0475 19.3771 17.4369C19.3771 17.835 19.4138 18.1876 19.4874 18.4949C19.5653 18.7978 19.6778 19.0379 19.8249 19.2153C19.9764 19.3884 20.1668 19.4749 20.3961 19.4749ZM24.1041 19.9812C23.7839 19.9812 23.5091 19.8795 23.2798 19.6761C23.0504 19.4728 22.8752 19.1829 22.754 18.8064C22.6372 18.4256 22.5788 17.9691 22.5788 17.4369C22.5788 16.9133 22.6372 16.4612 22.754 16.0804C22.8752 15.6996 23.0504 15.4075 23.2798 15.2041C23.5091 15.0008 23.7839 14.8991 24.1041 14.8991C24.4329 14.8991 24.7099 15.0029 24.9349 15.2106C25.1642 15.414 25.3373 15.7061 25.4541 16.0869C25.5753 16.4676 25.6359 16.9177 25.6359 17.4369C25.6359 17.9648 25.5753 18.4191 25.4541 18.7999C25.3373 19.1764 25.1642 19.4684 24.9349 19.6761C24.7099 19.8795 24.4329 19.9812 24.1041 19.9812ZM24.1041 19.4749C24.3377 19.4749 24.5303 19.3884 24.6817 19.2153C24.8332 19.0379 24.9457 18.7956 25.0192 18.4884C25.0928 18.1812 25.1296 17.8307 25.1296 17.4369C25.1296 17.0475 25.0906 16.7013 25.0128 16.3984C24.9392 16.0912 24.8267 15.8489 24.6752 15.6715C24.5238 15.4941 24.3334 15.4054 24.1041 15.4054C23.8747 15.4054 23.6844 15.4941 23.5329 15.6715C23.3858 15.8445 23.2733 16.0847 23.1954 16.3919C23.1218 16.6991 23.0851 17.0475 23.0851 17.4369C23.0851 17.835 23.1218 18.1876 23.1954 18.4949C23.2733 18.7978 23.3858 19.0379 23.5329 19.2153C23.6844 19.3884 23.8747 19.4749 24.1041 19.4749Z" fill="#5F6369"/>
<path d="M20.3345 52.7242C20.0446 52.7242 19.785 52.6571 19.5557 52.523C19.3263 52.3845 19.1446 52.1985 19.0105 51.9648C18.8806 51.7311 18.8157 51.4672 18.8157 51.173C18.8157 50.8874 18.8806 50.6321 19.0105 50.4071C19.1446 50.1821 19.3263 50.0047 19.5557 49.8748C19.785 49.745 20.0446 49.6801 20.3345 49.6801C20.6244 49.6801 20.8841 49.745 21.1134 49.8748C21.3427 50.0047 21.5223 50.1821 21.6521 50.4071C21.7819 50.6321 21.8468 50.8874 21.8468 51.173C21.8425 51.4672 21.7733 51.7311 21.6391 51.9648C21.5093 52.1985 21.3298 52.3845 21.1004 52.523C20.8754 52.6571 20.6201 52.7242 20.3345 52.7242ZM20.3345 52.2699C20.5249 52.2699 20.6958 52.2223 20.8473 52.1271C20.9987 52.0276 21.1177 51.8956 21.2043 51.7311C21.2951 51.5667 21.3406 51.3807 21.3406 51.173C21.3406 50.9739 21.2973 50.7965 21.2108 50.6407C21.1242 50.4806 21.0052 50.3551 20.8538 50.2643C20.7023 50.1734 20.5292 50.128 20.3345 50.128C20.1398 50.128 19.9667 50.1734 19.8153 50.2643C19.6638 50.3551 19.5427 50.4806 19.4518 50.6407C19.3653 50.7965 19.322 50.9739 19.322 51.173C19.322 51.3807 19.3653 51.5667 19.4518 51.7311C19.5384 51.8956 19.6573 52.0276 19.8088 52.1271C19.9646 52.2223 20.1398 52.2699 20.3345 52.2699ZM20.3345 50.0825C20.0965 50.0825 19.8824 50.0285 19.692 49.9203C19.5016 49.8121 19.3523 49.665 19.2441 49.4789C19.1359 49.2929 19.0819 49.0808 19.0819 48.8428C19.0819 48.6135 19.1359 48.4058 19.2441 48.2198C19.3523 48.0337 19.5016 47.8866 19.692 47.7784C19.8824 47.6702 20.0965 47.6161 20.3345 47.6161C20.5725 47.6118 20.7867 47.6637 20.9771 47.7719C21.1675 47.8758 21.3168 48.0229 21.4249 48.2133C21.5331 48.3993 21.585 48.6092 21.5807 48.8428C21.5807 49.0808 21.5245 49.2929 21.412 49.4789C21.3038 49.665 21.1545 49.8121 20.9641 49.9203C20.7781 50.0285 20.5682 50.0825 20.3345 50.0825ZM20.3345 49.6477C20.4773 49.6477 20.605 49.6131 20.7175 49.5438C20.8343 49.4703 20.9273 49.3729 20.9966 49.2518C21.0658 49.1263 21.1004 48.9878 21.1004 48.8364C21.1047 48.6892 21.0723 48.5594 21.0031 48.4469C20.9382 48.3301 20.8473 48.2392 20.7305 48.1743C20.6136 48.1094 20.4816 48.077 20.3345 48.077C20.1139 48.077 19.93 48.1505 19.7828 48.2976C19.64 48.4404 19.5665 48.62 19.5622 48.8364C19.5578 49.0657 19.6292 49.2582 19.7763 49.414C19.9235 49.5698 20.1095 49.6477 20.3345 49.6477ZM24.1041 52.6982C23.7839 52.6982 23.5091 52.5966 23.2798 52.3932C23.0504 52.1898 22.8752 51.8999 22.754 51.5234C22.6372 51.1427 22.5788 50.6862 22.5788 50.1539C22.5788 49.6304 22.6372 49.1782 22.754 48.7974C22.8752 48.4166 23.0504 48.1246 23.2798 47.9212C23.5091 47.7178 23.7839 47.6161 24.1041 47.6161C24.4329 47.6161 24.7099 47.72 24.9349 47.9277C25.1642 48.131 25.3373 48.4231 25.4541 48.8039C25.5753 49.1847 25.6359 49.6347 25.6359 50.1539C25.6359 50.6818 25.5753 51.1362 25.4541 51.517C25.3373 51.8934 25.1642 52.1855 24.9349 52.3932C24.7099 52.5966 24.4329 52.6982 24.1041 52.6982ZM24.1041 52.192C24.3377 52.192 24.5303 52.1054 24.6817 51.9324C24.8332 51.7549 24.9457 51.5126 25.0192 51.2054C25.0928 50.8982 25.1296 50.5477 25.1296 50.1539C25.1296 49.7645 25.0906 49.4183 25.0128 49.1154C24.9392 48.8082 24.8267 48.5659 24.6752 48.3885C24.5238 48.2111 24.3334 48.1224 24.1041 48.1224C23.8747 48.1224 23.6844 48.2111 23.5329 48.3885C23.3858 48.5616 23.2733 48.8017 23.1954 49.109C23.1218 49.4162 23.0851 49.7645 23.0851 50.1539C23.0851 50.552 23.1218 50.9047 23.1954 51.2119C23.2733 51.5148 23.3858 51.7549 23.5329 51.9324C23.6844 52.1054 23.8747 52.192 24.1041 52.192Z" fill="#5F6369"/>
<path d="M20.9597 85.415C20.8947 85.415 20.8385 85.3912 20.7909 85.3436C20.7433 85.296 20.7195 85.2355 20.7195 85.1619V84.2013H18.3959C18.3266 84.2013 18.2682 84.1797 18.2206 84.1364C18.1774 84.0888 18.1514 84.0347 18.1427 83.9741C18.1384 83.9136 18.1557 83.8573 18.1947 83.8054L20.7649 80.4433C20.7866 80.413 20.8125 80.3892 20.8428 80.3719C20.8774 80.3502 20.9207 80.3394 20.9726 80.3394C21.0419 80.3394 21.0981 80.3654 21.1414 80.4173C21.189 80.4649 21.2128 80.5255 21.2128 80.599V83.747H21.7255C21.7948 83.747 21.8532 83.7643 21.9008 83.7989C21.9484 83.8335 21.9722 83.8941 21.9722 83.9806C21.9722 84.0369 21.9484 84.0888 21.9008 84.1364C21.8532 84.1797 21.7948 84.2013 21.7255 84.2013H21.2128V85.1619C21.2128 85.2355 21.189 85.296 21.1414 85.3436C21.0938 85.3912 21.0332 85.415 20.9597 85.415ZM18.6685 83.9417L18.5776 83.747H20.7195V80.9625L20.8493 81.0988L18.6685 83.9417ZM24.1041 85.415C23.7839 85.415 23.5091 85.3134 23.2798 85.11C23.0504 84.9066 22.8752 84.6167 22.754 84.2402C22.6372 83.8595 22.5788 83.403 22.5788 82.8707C22.5788 82.3472 22.6372 81.895 22.754 81.5142C22.8752 81.1334 23.0504 80.8414 23.2798 80.638C23.5091 80.4346 23.7839 80.3329 24.1041 80.3329C24.4329 80.3329 24.7099 80.4368 24.9349 80.6445C25.1642 80.8478 25.3373 81.1399 25.4541 81.5207C25.5753 81.9015 25.6359 82.3515 25.6359 82.8707C25.6359 83.3986 25.5753 83.853 25.4541 84.2338C25.3373 84.6102 25.1642 84.9023 24.9349 85.11C24.7099 85.3134 24.4329 85.415 24.1041 85.415ZM24.1041 84.9088C24.3377 84.9088 24.5303 84.8222 24.6817 84.6492C24.8332 84.4717 24.9457 84.2294 25.0192 83.9222C25.0928 83.615 25.1296 83.2645 25.1296 82.8707C25.1296 82.4813 25.0906 82.1351 25.0128 81.8322C24.9392 81.525 24.8267 81.2827 24.6752 81.1053C24.5238 80.9279 24.3334 80.8392 24.1041 80.8392C23.8747 80.8392 23.6844 80.9279 23.5329 81.1053C23.3858 81.2784 23.2733 81.5185 23.1954 81.8258C23.1218 82.133 23.0851 82.4813 23.0851 82.8707C23.0851 83.2688 23.1218 83.6215 23.1954 83.9287C23.2733 84.2316 23.3858 84.4717 23.5329 84.6492C23.6844 84.8222 23.8747 84.9088 24.1041 84.9088Z" fill="#5F6369"/>
<path d="M19.1969 118.132C19.1276 118.132 19.067 118.108 19.0151 118.061C18.9675 118.013 18.9437 117.953 18.9437 117.879C18.9437 117.814 18.9675 117.756 19.0151 117.704L20.9818 115.38C21.0899 115.263 21.1765 115.133 21.2414 114.991C21.3063 114.844 21.3387 114.707 21.3387 114.582C21.3387 114.378 21.2976 114.199 21.2154 114.043C21.1375 113.887 21.025 113.766 20.8779 113.68C20.7351 113.589 20.5707 113.543 20.3846 113.543C20.2029 113.543 20.0363 113.591 19.8849 113.686C19.7377 113.777 19.6209 113.9 19.5344 114.056C19.4522 114.212 19.411 114.387 19.411 114.582C19.411 114.651 19.3872 114.709 19.3396 114.757C19.2921 114.805 19.2315 114.828 19.1579 114.828C19.0887 114.828 19.0281 114.805 18.9762 114.757C18.9286 114.709 18.9048 114.651 18.9048 114.582C18.9048 114.292 18.9697 114.032 19.0995 113.803C19.2293 113.574 19.4046 113.392 19.6252 113.258C19.8502 113.124 20.1034 113.056 20.3846 113.056C20.6659 113.056 20.9147 113.121 21.131 113.251C21.3517 113.381 21.5226 113.561 21.6438 113.79C21.7693 114.019 21.832 114.283 21.832 114.582C21.832 114.725 21.8082 114.861 21.7606 114.991C21.7174 115.12 21.6568 115.246 21.5789 115.367C21.501 115.484 21.4166 115.594 21.3258 115.698L19.6642 117.626H21.6957C21.765 117.626 21.8234 117.652 21.871 117.704C21.9229 117.756 21.9489 117.814 21.9489 117.879C21.9489 117.953 21.9229 118.013 21.871 118.061C21.8234 118.108 21.765 118.132 21.6957 118.132H19.1969ZM24.1041 118.132C23.7839 118.132 23.5091 118.03 23.2798 117.827C23.0504 117.624 22.8752 117.334 22.754 116.957C22.6372 116.577 22.5788 116.12 22.5788 115.588C22.5788 115.064 22.6372 114.612 22.754 114.231C22.8752 113.85 23.0504 113.558 23.2798 113.355C23.5091 113.152 23.7839 113.05 24.1041 113.05C24.4329 113.05 24.7099 113.154 24.9349 113.362C25.1642 113.565 25.3373 113.857 25.4541 114.238C25.5753 114.619 25.6359 115.069 25.6359 115.588C25.6359 116.116 25.5753 116.57 25.4541 116.951C25.3373 117.327 25.1642 117.619 24.9349 117.827C24.7099 118.03 24.4329 118.132 24.1041 118.132ZM24.1041 117.626C24.3377 117.626 24.5303 117.539 24.6817 117.366C24.8332 117.189 24.9457 116.946 25.0192 116.639C25.0928 116.332 25.1296 115.982 25.1296 115.588C25.1296 115.198 25.0906 114.852 25.0128 114.549C24.9392 114.242 24.8267 114 24.6752 113.822C24.5238 113.645 24.3334 113.556 24.1041 113.556C23.8747 113.556 23.6844 113.645 23.5329 113.822C23.3858 113.995 23.2733 114.236 23.1954 114.543C23.1218 114.85 23.0851 115.198 23.0851 115.588C23.0851 115.986 23.1218 116.339 23.1954 116.646C23.2733 116.949 23.3858 117.189 23.5329 117.366C23.6844 117.539 23.8747 117.626 24.1041 117.626Z" fill="#5F6369"/>
<path d="M24.1041 150.849C23.7839 150.849 23.5091 150.747 23.2798 150.544C23.0504 150.341 22.8752 150.051 22.754 149.674C22.6372 149.294 22.5788 148.837 22.5788 148.305C22.5788 147.781 22.6372 147.329 22.754 146.948C22.8752 146.568 23.0504 146.275 23.2798 146.072C23.5091 145.869 23.7839 145.767 24.1041 145.767C24.4329 145.767 24.7099 145.871 24.9349 146.079C25.1642 146.282 25.3373 146.574 25.4541 146.955C25.5753 147.336 25.6359 147.786 25.6359 148.305C25.6359 148.833 25.5753 149.287 25.4541 149.668C25.3373 150.044 25.1642 150.336 24.9349 150.544C24.7099 150.747 24.4329 150.849 24.1041 150.849ZM24.1041 150.343C24.3377 150.343 24.5303 150.256 24.6817 150.083C24.8332 149.906 24.9457 149.664 25.0192 149.356C25.0928 149.049 25.1296 148.699 25.1296 148.305C25.1296 147.915 25.0906 147.569 25.0128 147.266C24.9392 146.959 24.8267 146.717 24.6752 146.539C24.5238 146.362 24.3334 146.273 24.1041 146.273C23.8747 146.273 23.6844 146.362 23.5329 146.539C23.3858 146.712 23.2733 146.953 23.1954 147.26C23.1218 147.567 23.0851 147.915 23.0851 148.305C23.0851 148.703 23.1218 149.056 23.1954 149.363C23.2733 149.666 23.3858 149.906 23.5329 150.083C23.6844 150.256 23.8747 150.343 24.1041 150.343Z" fill="#5F6369"/>
<path d="M36.7799 17.7106H244.78" stroke="#D7D8D6" stroke-width="0.540881" stroke-linecap="square" stroke-dasharray="1.08 1.62"/>
<path d="M36.7799 50.1635H244.78" stroke="#D7D8D6" stroke-width="0.540881" stroke-linecap="square" stroke-dasharray="1.08 1.62"/>
<path d="M36.7799 82.6164H244.78" stroke="#D7D8D6" stroke-width="0.540881" stroke-linecap="square" stroke-dasharray="1.08 1.62"/>
<path d="M36.7799 115.069H244.78" stroke="#D7D8D6" stroke-width="0.540881" stroke-linecap="square" stroke-dasharray="1.08 1.62"/>
<path d="M36.7799 147.522H244.78" stroke="#D7D8D6" stroke-width="0.540881" stroke-linecap="square" stroke-dasharray="1.08 1.62"/>
<path d="M43.0289 166.084C42.739 166.084 42.4793 166.017 42.25 165.883C42.0207 165.749 41.8389 165.567 41.7048 165.338C41.5707 165.108 41.5036 164.851 41.5036 164.565C41.5036 164.492 41.5274 164.431 41.575 164.383C41.6226 164.336 41.6832 164.312 41.7567 164.312C41.8303 164.312 41.8909 164.336 41.9384 164.383C41.986 164.431 42.0098 164.492 42.0098 164.565C42.0098 164.76 42.0553 164.937 42.1461 165.097C42.237 165.253 42.3582 165.376 42.5096 165.467C42.6654 165.558 42.8385 165.604 43.0289 165.604C43.2193 165.604 43.3902 165.558 43.5416 165.467C43.6974 165.372 43.8186 165.247 43.9051 165.091C43.996 164.935 44.0414 164.76 44.0414 164.565V161.203C44.0414 161.129 44.0652 161.069 44.1128 161.021C44.1604 160.974 44.221 160.95 44.2945 160.95C44.3681 160.95 44.4287 160.974 44.4763 161.021C44.5239 161.069 44.5477 161.129 44.5477 161.203V164.565C44.5477 164.851 44.4806 165.108 44.3464 165.338C44.2123 165.567 44.0306 165.749 43.8012 165.883C43.5719 166.017 43.3144 166.084 43.0289 166.084ZM47.3468 166.051C47.0136 166.051 46.715 165.974 46.4511 165.818C46.1871 165.658 45.9773 165.441 45.8215 165.169C45.67 164.896 45.5943 164.589 45.5943 164.247C45.5943 163.901 45.6722 163.592 45.828 163.319C45.9881 163.046 46.2044 162.832 46.477 162.676C46.7496 162.516 47.0569 162.436 47.3987 162.436C47.7405 162.436 48.0456 162.516 48.3139 162.676C48.5865 162.832 48.8007 163.046 48.9564 163.319C49.1165 163.592 49.1987 163.901 49.2031 164.247L49.0019 164.403C49.0019 164.714 48.9283 164.996 48.7812 165.247C48.6384 165.493 48.4415 165.69 48.1905 165.837C47.9439 165.98 47.6626 166.051 47.3468 166.051ZM47.3987 165.597C47.6497 165.597 47.8725 165.539 48.0672 165.422C48.2663 165.305 48.422 165.145 48.5345 164.942C48.6514 164.734 48.7098 164.502 48.7098 164.247C48.7098 163.987 48.6514 163.756 48.5345 163.553C48.422 163.349 48.2663 163.189 48.0672 163.072C47.8725 162.951 47.6497 162.891 47.3987 162.891C47.152 162.891 46.9292 162.951 46.7302 163.072C46.5311 163.189 46.3732 163.349 46.2563 163.553C46.1395 163.756 46.0811 163.987 46.0811 164.247C46.0811 164.502 46.1395 164.734 46.2563 164.942C46.3732 165.145 46.5311 165.305 46.7302 165.422C46.9292 165.539 47.152 165.597 47.3987 165.597ZM48.9499 166.019C48.8764 166.019 48.8158 165.997 48.7682 165.954C48.7206 165.907 48.6968 165.846 48.6968 165.772V164.663L48.8201 164.15L49.2031 164.247V165.772C49.2031 165.846 49.1793 165.907 49.1317 165.954C49.0841 165.997 49.0235 166.019 48.9499 166.019ZM53.2192 166.019C53.1456 166.019 53.085 165.995 53.0374 165.948C52.9898 165.9 52.966 165.842 52.966 165.772V164.085C52.966 163.817 52.9141 163.596 52.8103 163.423C52.7107 163.25 52.5723 163.12 52.3949 163.033C52.2218 162.947 52.0249 162.904 51.8042 162.904C51.5922 162.904 51.3996 162.945 51.2266 163.027C51.0578 163.109 50.9237 163.222 50.8241 163.364C50.7246 163.507 50.6749 163.669 50.6749 163.851H50.3179C50.3265 163.579 50.4001 163.336 50.5386 163.124C50.677 162.908 50.8609 162.739 51.0902 162.618C51.3196 162.493 51.5749 162.43 51.8561 162.43C52.1634 162.43 52.4381 162.495 52.6804 162.624C52.9228 162.75 53.1131 162.936 53.2516 163.183C53.3944 163.429 53.4658 163.73 53.4658 164.085V165.772C53.4658 165.842 53.442 165.9 53.3944 165.948C53.3468 165.995 53.2884 166.019 53.2192 166.019ZM50.4282 166.019C50.3503 166.019 50.2876 165.997 50.24 165.954C50.1967 165.907 50.1751 165.846 50.1751 165.772V162.722C50.1751 162.644 50.1967 162.583 50.24 162.54C50.2876 162.493 50.3503 162.469 50.4282 162.469C50.5018 162.469 50.5602 162.493 50.6035 162.54C50.6511 162.583 50.6749 162.644 50.6749 162.722V165.772C50.6749 165.846 50.6511 165.907 50.6035 165.954C50.5602 165.997 50.5018 166.019 50.4282 166.019Z" fill="#5F6369"/>
<path d="M58.745 166.019C58.6758 166.019 58.6152 165.995 58.5632 165.948C58.5157 165.896 58.4919 165.835 58.4919 165.766V161.203C58.4919 161.129 58.5157 161.069 58.5632 161.021C58.6108 160.974 58.6714 160.95 58.745 160.95H61.7891C61.8626 160.95 61.9232 160.974 61.9708 161.021C62.0184 161.065 62.0422 161.123 62.0422 161.197C62.0422 161.261 62.0184 161.318 61.9708 161.365C61.9232 161.413 61.8626 161.437 61.7891 161.437H58.9981V163.228H61.0297C61.1032 163.228 61.1638 163.252 61.2114 163.299C61.259 163.347 61.2828 163.406 61.2828 163.475C61.2828 163.544 61.259 163.602 61.2114 163.65C61.1638 163.698 61.1032 163.721 61.0297 163.721H58.9981V165.766C58.9981 165.835 58.9743 165.896 58.9267 165.948C58.8791 165.995 58.8185 166.019 58.745 166.019ZM64.4956 166.051C64.1451 166.051 63.8336 165.976 63.561 165.824C63.2927 165.669 63.0807 165.454 62.9249 165.182C62.7735 164.909 62.6977 164.598 62.6977 164.247C62.6977 163.892 62.7691 163.581 62.9119 163.312C63.059 163.04 63.2603 162.826 63.5156 162.67C63.7708 162.514 64.0651 162.436 64.3983 162.436C64.7271 162.436 65.0127 162.512 65.255 162.663C65.5017 162.811 65.6921 163.016 65.8262 163.28C65.9603 163.544 66.0274 163.845 66.0274 164.182C66.0274 164.251 66.0058 164.308 65.9625 164.351C65.9192 164.39 65.863 164.409 65.7937 164.409H63.0352V163.994H65.8457L65.5666 164.195C65.5709 163.944 65.5255 163.719 65.4303 163.52C65.3351 163.321 65.1988 163.165 65.0214 163.053C64.8483 162.94 64.6406 162.884 64.3983 162.884C64.1516 162.884 63.9353 162.943 63.7492 163.059C63.5631 163.176 63.4182 163.338 63.3143 163.546C63.2148 163.75 63.1651 163.983 63.1651 164.247C63.1651 164.511 63.2213 164.745 63.3338 164.948C63.4506 165.151 63.6086 165.312 63.8076 165.428C64.0067 165.545 64.236 165.604 64.4956 165.604C64.6514 165.604 64.8072 165.578 64.9629 165.526C65.123 165.47 65.2507 165.4 65.3459 165.318C65.3935 165.279 65.4476 165.26 65.5082 165.26C65.5687 165.255 65.6207 165.27 65.6639 165.305C65.7202 165.357 65.7483 165.413 65.7483 165.474C65.7526 165.534 65.7288 165.586 65.6769 165.63C65.5341 165.751 65.3524 165.852 65.1317 165.935C64.911 166.013 64.699 166.051 64.4956 166.051ZM68.6707 166.051C68.3332 166.051 68.0282 165.974 67.7556 165.818C67.4873 165.662 67.2731 165.45 67.113 165.182C66.9572 164.909 66.8772 164.604 66.8728 164.267V161.203C66.8728 161.125 66.8945 161.065 66.9378 161.021C66.9854 160.974 67.0481 160.95 67.126 160.95C67.1995 160.95 67.258 160.974 67.3012 161.021C67.3488 161.065 67.3726 161.125 67.3726 161.203V163.111C67.5154 162.908 67.7036 162.746 67.9373 162.624C68.1753 162.499 68.4392 162.436 68.7291 162.436C69.0623 162.436 69.3609 162.516 69.6248 162.676C69.8888 162.832 70.0965 163.046 70.2479 163.319C70.4037 163.592 70.4816 163.899 70.4816 164.241C70.4816 164.587 70.4016 164.896 70.2415 165.169C70.0857 165.441 69.8715 165.658 69.5989 165.818C69.3263 165.974 69.0169 166.051 68.6707 166.051ZM68.6707 165.597C68.9217 165.597 69.1467 165.539 69.3458 165.422C69.5448 165.301 69.7006 165.138 69.8131 164.935C69.9299 164.732 69.9883 164.5 69.9883 164.241C69.9883 163.985 69.9299 163.756 69.8131 163.553C69.7006 163.345 69.5448 163.183 69.3458 163.066C69.1467 162.949 68.9217 162.891 68.6707 162.891C68.4241 162.891 68.2012 162.949 68.0022 163.066C67.8032 163.183 67.6474 163.345 67.5349 163.553C67.4224 163.756 67.3661 163.985 67.3661 164.241C67.3661 164.5 67.4224 164.732 67.5349 164.935C67.6474 165.138 67.8032 165.301 68.0022 165.422C68.2012 165.539 68.4241 165.597 68.6707 165.597Z" fill="#5F6369"/>
<path d="M75.5599 166.019C75.4907 166.019 75.4301 165.995 75.3782 165.948C75.3306 165.896 75.3068 165.835 75.3068 165.766V161.203C75.3068 161.129 75.3306 161.069 75.3782 161.021C75.4301 160.974 75.4907 160.95 75.5599 160.95C75.6638 160.95 75.7395 160.993 75.7871 161.08L77.9744 165.428H77.7537L79.9021 161.08C79.9541 160.993 80.0298 160.95 80.1293 160.95C80.1985 160.95 80.2569 160.974 80.3045 161.021C80.3521 161.069 80.3759 161.129 80.3759 161.203V165.766C80.3759 165.835 80.3521 165.896 80.3045 165.948C80.2569 165.995 80.1985 166.019 80.1293 166.019C80.0557 166.019 79.993 165.995 79.9411 165.948C79.8935 165.896 79.8697 165.835 79.8697 165.766V161.859L79.98 161.865L78.0653 165.779C78.0177 165.861 77.9441 165.902 77.8446 165.902C77.7364 165.902 77.6586 165.85 77.611 165.746L75.6833 161.891L75.8131 161.859V165.766C75.8131 165.835 75.7871 165.896 75.7352 165.948C75.6876 165.995 75.6292 166.019 75.5599 166.019ZM83.1763 166.051C82.8431 166.051 82.5445 165.974 82.2806 165.818C82.0166 165.658 81.8068 165.441 81.651 165.169C81.4995 164.896 81.4238 164.589 81.4238 164.247C81.4238 163.901 81.5017 163.592 81.6575 163.319C81.8176 163.046 82.0339 162.832 82.3065 162.676C82.5791 162.516 82.8863 162.436 83.2282 162.436C83.57 162.436 83.8751 162.516 84.1434 162.676C84.416 162.832 84.6301 163.046 84.7859 163.319C84.946 163.592 85.0282 163.901 85.0326 164.247L84.8314 164.403C84.8314 164.714 84.7578 164.996 84.6107 165.247C84.4679 165.493 84.271 165.69 84.02 165.837C83.7734 165.98 83.4921 166.051 83.1763 166.051ZM83.2282 165.597C83.4792 165.597 83.702 165.539 83.8967 165.422C84.0958 165.305 84.2515 165.145 84.364 164.942C84.4809 164.734 84.5393 164.502 84.5393 164.247C84.5393 163.987 84.4809 163.756 84.364 163.553C84.2515 163.349 84.0958 163.189 83.8967 163.072C83.702 162.951 83.4792 162.891 83.2282 162.891C82.9815 162.891 82.7587 162.951 82.5597 163.072C82.3606 163.189 82.2027 163.349 82.0858 163.553C81.969 163.756 81.9106 163.987 81.9106 164.247C81.9106 164.502 81.969 164.734 82.0858 164.942C82.2027 165.145 82.3606 165.305 82.5597 165.422C82.7587 165.539 82.9815 165.597 83.2282 165.597ZM84.7794 166.019C84.7059 166.019 84.6453 165.997 84.5977 165.954C84.5501 165.907 84.5263 165.846 84.5263 165.772V164.663L84.6496 164.15L85.0326 164.247V165.772C85.0326 165.846 85.0088 165.907 84.9612 165.954C84.9136 165.997 84.853 166.019 84.7794 166.019ZM86.2123 163.832C86.2253 163.563 86.2945 163.323 86.42 163.111C86.5498 162.899 86.7164 162.733 86.9197 162.611C87.1274 162.49 87.3568 162.43 87.6077 162.43C87.8068 162.43 87.9604 162.458 88.0686 162.514C88.1768 162.57 88.2179 162.653 88.1919 162.761C88.1746 162.826 88.1443 162.869 88.101 162.891C88.0621 162.912 88.0123 162.921 87.9517 162.917C87.8955 162.912 87.8306 162.908 87.757 162.904C87.5147 162.882 87.2984 162.908 87.108 162.981C86.9219 163.051 86.7726 163.159 86.6601 163.306C86.5519 163.453 86.4979 163.628 86.4979 163.832H86.2123ZM86.2512 166.019C86.1733 166.019 86.1128 165.997 86.0695 165.954C86.0262 165.911 86.0046 165.85 86.0046 165.772V162.715C86.0046 162.637 86.0262 162.577 86.0695 162.534C86.1128 162.49 86.1733 162.469 86.2512 162.469C86.3291 162.469 86.3897 162.49 86.433 162.534C86.4762 162.577 86.4979 162.637 86.4979 162.715V165.772C86.4979 165.85 86.4762 165.911 86.433 165.954C86.3897 165.997 86.3291 166.019 86.2512 166.019Z" fill="#5F6369"/>
<path d="M92.7967 166.019C92.6971 166.019 92.6257 165.978 92.5825 165.896C92.5392 165.814 92.5349 165.733 92.5695 165.656L94.4777 161.125C94.5253 161.008 94.6075 160.95 94.7244 160.95C94.8369 160.95 94.9169 161.008 94.9645 161.125L96.8792 165.662C96.9182 165.744 96.9117 165.824 96.8598 165.902C96.8122 165.98 96.7429 166.019 96.6521 166.019C96.6001 166.019 96.5525 166.006 96.5093 165.98C96.4703 165.954 96.4379 165.915 96.4119 165.863L94.627 161.534H94.8282L93.0303 165.863C93.0087 165.915 92.9762 165.954 92.933 165.98C92.894 166.006 92.8486 166.019 92.7967 166.019ZM93.225 164.812L93.4198 164.377H96.0549L96.2496 164.812H93.225ZM97.8277 167.538C97.7498 167.538 97.687 167.514 97.6394 167.466C97.5962 167.423 97.5745 167.363 97.5745 167.285V164.221C97.5789 163.884 97.6589 163.581 97.8147 163.312C97.9748 163.04 98.189 162.826 98.4573 162.67C98.7299 162.514 99.0349 162.436 99.3724 162.436C99.7186 162.436 100.028 162.516 100.301 162.676C100.573 162.832 100.787 163.046 100.943 163.319C101.103 163.592 101.183 163.901 101.183 164.247C101.183 164.589 101.105 164.896 100.95 165.169C100.798 165.441 100.59 165.658 100.327 165.818C100.063 165.974 99.764 166.051 99.4308 166.051C99.1409 166.051 98.877 165.991 98.639 165.87C98.4053 165.744 98.2171 165.58 98.0743 165.376V167.285C98.0743 167.363 98.0505 167.423 98.0029 167.466C97.9596 167.514 97.9012 167.538 97.8277 167.538ZM99.3724 165.597C99.6234 165.597 99.8484 165.539 100.047 165.422C100.246 165.305 100.402 165.145 100.515 164.942C100.632 164.734 100.69 164.502 100.69 164.247C100.69 163.987 100.632 163.756 100.515 163.553C100.402 163.349 100.246 163.189 100.047 163.072C99.8484 162.951 99.6234 162.891 99.3724 162.891C99.1258 162.891 98.9029 162.951 98.7039 163.072C98.5048 163.189 98.3491 163.349 98.2366 163.553C98.1241 163.756 98.0678 163.987 98.0678 164.247C98.0678 164.502 98.1241 164.734 98.2366 164.942C98.3491 165.145 98.5048 165.305 98.7039 165.422C98.9029 165.539 99.1258 165.597 99.3724 165.597ZM102.371 163.832C102.384 163.563 102.453 163.323 102.579 163.111C102.709 162.899 102.875 162.733 103.079 162.611C103.286 162.49 103.516 162.43 103.767 162.43C103.966 162.43 104.119 162.458 104.228 162.514C104.336 162.57 104.377 162.653 104.351 162.761C104.334 162.826 104.303 162.869 104.26 162.891C104.221 162.912 104.171 162.921 104.111 162.917C104.054 162.912 103.99 162.908 103.916 162.904C103.674 162.882 103.457 162.908 103.267 162.981C103.081 163.051 102.932 163.159 102.819 163.306C102.711 163.453 102.657 163.628 102.657 163.832H102.371ZM102.41 166.019C102.332 166.019 102.272 165.997 102.228 165.954C102.185 165.911 102.164 165.85 102.164 165.772V162.715C102.164 162.637 102.185 162.577 102.228 162.534C102.272 162.49 102.332 162.469 102.41 162.469C102.488 162.469 102.549 162.49 102.592 162.534C102.635 162.577 102.657 162.637 102.657 162.715V165.772C102.657 165.85 102.635 165.911 102.592 165.954C102.549 165.997 102.488 166.019 102.41 166.019Z" fill="#5F6369"/>
<path d="M109.196 166.019C109.127 166.019 109.067 165.995 109.015 165.948C108.967 165.896 108.943 165.835 108.943 165.766V161.203C108.943 161.129 108.967 161.069 109.015 161.021C109.067 160.974 109.127 160.95 109.196 160.95C109.3 160.95 109.376 160.993 109.423 161.08L111.611 165.428H111.39L113.539 161.08C113.59 160.993 113.666 160.95 113.766 160.95C113.835 160.95 113.893 160.974 113.941 161.021C113.989 161.069 114.012 161.129 114.012 161.203V165.766C114.012 165.835 113.989 165.896 113.941 165.948C113.893 165.995 113.835 166.019 113.766 166.019C113.692 166.019 113.629 165.995 113.577 165.948C113.53 165.896 113.506 165.835 113.506 165.766V161.859L113.616 161.865L111.702 165.779C111.654 165.861 111.581 165.902 111.481 165.902C111.373 165.902 111.295 165.85 111.247 165.746L109.32 161.891L109.449 161.859V165.766C109.449 165.835 109.423 165.896 109.372 165.948C109.324 165.995 109.266 166.019 109.196 166.019ZM116.813 166.051C116.479 166.051 116.181 165.974 115.917 165.818C115.653 165.658 115.443 165.441 115.287 165.169C115.136 164.896 115.06 164.589 115.06 164.247C115.06 163.901 115.138 163.592 115.294 163.319C115.454 163.046 115.67 162.832 115.943 162.676C116.216 162.516 116.523 162.436 116.865 162.436C117.206 162.436 117.511 162.516 117.78 162.676C118.052 162.832 118.267 163.046 118.422 163.319C118.582 163.592 118.665 163.901 118.669 164.247L118.468 164.403C118.468 164.714 118.394 164.996 118.247 165.247C118.104 165.493 117.907 165.69 117.656 165.837C117.41 165.98 117.129 166.051 116.813 166.051ZM116.865 165.597C117.116 165.597 117.338 165.539 117.533 165.422C117.732 165.305 117.888 165.145 118 164.942C118.117 164.734 118.176 164.502 118.176 164.247C118.176 163.987 118.117 163.756 118 163.553C117.888 163.349 117.732 163.189 117.533 163.072C117.338 162.951 117.116 162.891 116.865 162.891C116.618 162.891 116.395 162.951 116.196 163.072C115.997 163.189 115.839 163.349 115.722 163.553C115.605 163.756 115.547 163.987 115.547 164.247C115.547 164.502 115.605 164.734 115.722 164.942C115.839 165.145 115.997 165.305 116.196 165.422C116.395 165.539 116.618 165.597 116.865 165.597ZM118.416 166.019C118.342 166.019 118.282 165.997 118.234 165.954C118.186 165.907 118.163 165.846 118.163 165.772V164.663L118.286 164.15L118.669 164.247V165.772C118.669 165.846 118.645 165.907 118.598 165.954C118.55 165.997 118.489 166.019 118.416 166.019ZM120.251 167.564C120.216 167.564 120.178 167.555 120.134 167.538C119.987 167.473 119.946 167.369 120.011 167.226L122.107 162.605C122.172 162.467 122.276 162.428 122.419 162.488C122.566 162.549 122.607 162.65 122.542 162.793L120.439 167.415C120.396 167.514 120.333 167.564 120.251 167.564ZM120.972 165.909C120.907 165.939 120.846 165.945 120.79 165.928C120.734 165.907 120.688 165.863 120.653 165.798L119.206 162.8C119.176 162.735 119.171 162.674 119.193 162.618C119.215 162.562 119.258 162.518 119.323 162.488C119.388 162.458 119.448 162.454 119.505 162.475C119.561 162.493 119.604 162.534 119.634 162.599L121.056 165.597C121.091 165.662 121.101 165.723 121.088 165.779C121.075 165.835 121.036 165.878 120.972 165.909Z" fill="#5F6369"/>
<path d="M127.849 166.084C127.559 166.084 127.299 166.017 127.07 165.883C126.841 165.749 126.659 165.567 126.525 165.338C126.391 165.108 126.323 164.851 126.323 164.565C126.323 164.492 126.347 164.431 126.395 164.383C126.442 164.336 126.503 164.312 126.577 164.312C126.65 164.312 126.711 164.336 126.758 164.383C126.806 164.431 126.83 164.492 126.83 164.565C126.83 164.76 126.875 164.937 126.966 165.097C127.057 165.253 127.178 165.376 127.33 165.467C127.485 165.558 127.658 165.604 127.849 165.604C128.039 165.604 128.21 165.558 128.362 165.467C128.517 165.372 128.638 165.247 128.725 165.091C128.816 164.935 128.861 164.76 128.861 164.565V161.203C128.861 161.129 128.885 161.069 128.933 161.021C128.98 160.974 129.041 160.95 129.114 160.95C129.188 160.95 129.249 160.974 129.296 161.021C129.344 161.069 129.368 161.129 129.368 161.203V164.565C129.368 164.851 129.3 165.108 129.166 165.338C129.032 165.567 128.85 165.749 128.621 165.883C128.392 166.017 128.134 166.084 127.849 166.084ZM132.147 166.058C131.84 166.058 131.565 165.995 131.323 165.87C131.081 165.74 130.888 165.552 130.745 165.305C130.607 165.058 130.538 164.758 130.538 164.403V162.715C130.538 162.646 130.561 162.588 130.609 162.54C130.657 162.493 130.715 162.469 130.784 162.469C130.858 162.469 130.918 162.493 130.966 162.54C131.014 162.588 131.037 162.646 131.037 162.715V164.403C131.037 164.671 131.087 164.892 131.187 165.065C131.29 165.238 131.429 165.368 131.602 165.454C131.779 165.541 131.978 165.584 132.199 165.584C132.411 165.584 132.602 165.543 132.77 165.461C132.943 165.379 133.08 165.266 133.179 165.123C133.279 164.981 133.328 164.818 133.328 164.637H133.685C133.672 164.909 133.597 165.154 133.458 165.37C133.324 165.582 133.142 165.751 132.913 165.876C132.684 165.997 132.428 166.058 132.147 166.058ZM133.575 166.019C133.502 166.019 133.441 165.997 133.393 165.954C133.35 165.907 133.328 165.844 133.328 165.766V162.715C133.328 162.642 133.35 162.583 133.393 162.54C133.441 162.493 133.502 162.469 133.575 162.469C133.649 162.469 133.709 162.493 133.757 162.54C133.804 162.583 133.828 162.642 133.828 162.715V165.766C133.828 165.844 133.804 165.907 133.757 165.954C133.709 165.997 133.649 166.019 133.575 166.019ZM138.039 166.019C137.965 166.019 137.905 165.995 137.857 165.948C137.81 165.9 137.786 165.842 137.786 165.772V164.085C137.786 163.817 137.734 163.596 137.63 163.423C137.531 163.25 137.392 163.12 137.215 163.033C137.042 162.947 136.845 162.904 136.624 162.904C136.412 162.904 136.22 162.945 136.046 163.027C135.878 163.109 135.744 163.222 135.644 163.364C135.545 163.507 135.495 163.669 135.495 163.851H135.138C135.146 163.579 135.22 163.336 135.358 163.124C135.497 162.908 135.681 162.739 135.91 162.618C136.139 162.493 136.395 162.43 136.676 162.43C136.983 162.43 137.258 162.495 137.5 162.624C137.743 162.75 137.933 162.936 138.072 163.183C138.214 163.429 138.286 163.73 138.286 164.085V165.772C138.286 165.842 138.262 165.9 138.214 165.948C138.167 165.995 138.108 166.019 138.039 166.019ZM135.248 166.019C135.17 166.019 135.107 165.997 135.06 165.954C135.017 165.907 134.995 165.846 134.995 165.772V162.722C134.995 162.644 135.017 162.583 135.06 162.54C135.107 162.493 135.17 162.469 135.248 162.469C135.322 162.469 135.38 162.493 135.423 162.54C135.471 162.583 135.495 162.644 135.495 162.722V165.772C135.495 165.846 135.471 165.907 135.423 165.954C135.38 165.997 135.322 166.019 135.248 166.019Z" fill="#5F6369"/>
<path d="M146.093 166.084C145.803 166.084 145.544 166.017 145.314 165.883C145.085 165.749 144.903 165.567 144.769 165.338C144.635 165.108 144.568 164.851 144.568 164.565C144.568 164.492 144.592 164.431 144.639 164.383C144.687 164.336 144.747 164.312 144.821 164.312C144.895 164.312 144.955 164.336 145.003 164.383C145.05 164.431 145.074 164.492 145.074 164.565C145.074 164.76 145.12 164.937 145.21 165.097C145.301 165.253 145.422 165.376 145.574 165.467C145.73 165.558 145.903 165.604 146.093 165.604C146.283 165.604 146.454 165.558 146.606 165.467C146.762 165.372 146.883 165.247 146.969 165.091C147.06 164.935 147.106 164.76 147.106 164.565V161.203C147.106 161.129 147.129 161.069 147.177 161.021C147.225 160.974 147.285 160.95 147.359 160.95C147.432 160.95 147.493 160.974 147.54 161.021C147.588 161.069 147.612 161.129 147.612 161.203V164.565C147.612 164.851 147.545 165.108 147.411 165.338C147.277 165.567 147.095 165.749 146.865 165.883C146.636 166.017 146.379 166.084 146.093 166.084ZM150.392 166.058C150.084 166.058 149.81 165.995 149.567 165.87C149.325 165.74 149.132 165.552 148.99 165.305C148.851 165.058 148.782 164.758 148.782 164.403V162.715C148.782 162.646 148.806 162.588 148.853 162.54C148.901 162.493 148.959 162.469 149.029 162.469C149.102 162.469 149.163 162.493 149.21 162.54C149.258 162.588 149.282 162.646 149.282 162.715V164.403C149.282 164.671 149.331 164.892 149.431 165.065C149.535 165.238 149.673 165.368 149.846 165.454C150.024 165.541 150.223 165.584 150.443 165.584C150.655 165.584 150.846 165.543 151.015 165.461C151.188 165.379 151.324 165.266 151.424 165.123C151.523 164.981 151.573 164.818 151.573 164.637H151.93C151.917 164.909 151.841 165.154 151.703 165.37C151.568 165.582 151.387 165.751 151.157 165.876C150.928 165.997 150.673 166.058 150.392 166.058ZM151.819 166.019C151.746 166.019 151.685 165.997 151.638 165.954C151.594 165.907 151.573 165.844 151.573 165.766V162.715C151.573 162.642 151.594 162.583 151.638 162.54C151.685 162.493 151.746 162.469 151.819 162.469C151.893 162.469 151.954 162.493 152.001 162.54C152.049 162.583 152.073 162.642 152.073 162.715V165.766C152.073 165.844 152.049 165.907 152.001 165.954C151.954 165.997 151.893 166.019 151.819 166.019ZM154.005 166.019C153.832 166.019 153.676 165.971 153.538 165.876C153.404 165.781 153.298 165.649 153.22 165.48C153.146 165.312 153.11 165.117 153.11 164.896V161.197C153.11 161.123 153.131 161.065 153.174 161.021C153.222 160.974 153.283 160.95 153.356 160.95C153.43 160.95 153.488 160.974 153.531 161.021C153.579 161.065 153.603 161.123 153.603 161.197V164.896C153.603 165.082 153.64 165.234 153.713 165.351C153.791 165.467 153.888 165.526 154.005 165.526H154.167C154.232 165.526 154.284 165.55 154.323 165.597C154.362 165.64 154.382 165.699 154.382 165.772C154.382 165.846 154.354 165.907 154.297 165.954C154.245 165.997 154.176 166.019 154.09 166.019H154.005Z" fill="#5F6369"/>
<path d="M160.041 166.019C159.941 166.019 159.87 165.978 159.827 165.896C159.783 165.814 159.779 165.733 159.814 165.656L161.722 161.125C161.77 161.008 161.852 160.95 161.969 160.95C162.081 160.95 162.161 161.008 162.209 161.125L164.123 165.662C164.162 165.744 164.156 165.824 164.104 165.902C164.056 165.98 163.987 166.019 163.896 166.019C163.844 166.019 163.797 166.006 163.754 165.98C163.715 165.954 163.682 165.915 163.656 165.863L161.871 161.534H162.072L160.275 165.863C160.253 165.915 160.22 165.954 160.177 165.98C160.138 166.006 160.093 166.019 160.041 166.019ZM160.469 164.812L160.664 164.377H163.299L163.494 164.812H160.469ZM166.364 166.058C166.056 166.058 165.782 165.995 165.539 165.87C165.297 165.74 165.104 165.552 164.962 165.305C164.823 165.058 164.754 164.758 164.754 164.403V162.715C164.754 162.646 164.778 162.588 164.825 162.54C164.873 162.493 164.931 162.469 165.001 162.469C165.074 162.469 165.135 162.493 165.182 162.54C165.23 162.588 165.254 162.646 165.254 162.715V164.403C165.254 164.671 165.303 164.892 165.403 165.065C165.507 165.238 165.645 165.368 165.818 165.454C165.996 165.541 166.195 165.584 166.415 165.584C166.627 165.584 166.818 165.543 166.987 165.461C167.16 165.379 167.296 165.266 167.396 165.123C167.495 164.981 167.545 164.818 167.545 164.637H167.902C167.889 164.909 167.813 165.154 167.675 165.37C167.54 165.582 167.359 165.751 167.129 165.876C166.9 165.997 166.645 166.058 166.364 166.058ZM167.791 166.019C167.718 166.019 167.657 165.997 167.61 165.954C167.566 165.907 167.545 165.844 167.545 165.766V162.715C167.545 162.642 167.566 162.583 167.61 162.54C167.657 162.493 167.718 162.469 167.791 162.469C167.865 162.469 167.926 162.493 167.973 162.54C168.021 162.583 168.045 162.642 168.045 162.715V165.766C168.045 165.844 168.021 165.907 167.973 165.954C167.926 165.997 167.865 166.019 167.791 166.019ZM170.776 166.051C170.434 166.051 170.131 165.976 169.867 165.824C169.603 165.669 169.395 165.454 169.244 165.182C169.097 164.909 169.023 164.598 169.023 164.247C169.023 163.892 169.101 163.579 169.257 163.306C169.413 163.033 169.627 162.821 169.899 162.67C170.172 162.514 170.481 162.436 170.827 162.436C171.178 162.436 171.487 162.514 171.756 162.67C172.028 162.821 172.24 163.033 172.392 163.306C172.547 163.579 172.628 163.892 172.632 164.247L172.34 164.403C172.34 164.723 172.273 165.009 172.139 165.26C172.004 165.506 171.818 165.701 171.58 165.844C171.347 165.982 171.078 166.051 170.776 166.051ZM170.84 167.421C170.499 167.421 170.198 167.356 169.938 167.226C169.679 167.101 169.464 166.928 169.296 166.707C169.248 166.655 169.226 166.599 169.231 166.538C169.239 166.478 169.272 166.428 169.328 166.389C169.384 166.35 169.447 166.337 169.516 166.35C169.586 166.363 169.64 166.395 169.679 166.447C169.804 166.603 169.964 166.729 170.159 166.824C170.358 166.919 170.587 166.967 170.847 166.967C171.089 166.967 171.308 166.908 171.502 166.791C171.697 166.675 171.851 166.51 171.963 166.298C172.08 166.086 172.139 165.837 172.139 165.552V164.565L172.327 164.189L172.632 164.247V165.571C172.632 165.922 172.554 166.235 172.398 166.512C172.242 166.794 172.03 167.014 171.762 167.174C171.494 167.339 171.187 167.421 170.84 167.421ZM170.827 165.597C171.083 165.597 171.308 165.541 171.502 165.428C171.702 165.312 171.857 165.151 171.97 164.948C172.082 164.745 172.139 164.511 172.139 164.247C172.139 163.983 172.082 163.75 171.97 163.546C171.857 163.338 171.702 163.178 171.502 163.066C171.308 162.949 171.083 162.891 170.827 162.891C170.572 162.891 170.345 162.949 170.146 163.066C169.947 163.178 169.791 163.338 169.679 163.546C169.566 163.75 169.51 163.983 169.51 164.247C169.51 164.511 169.566 164.745 169.679 164.948C169.791 165.151 169.947 165.312 170.146 165.428C170.345 165.541 170.572 165.597 170.827 165.597Z" fill="#5F6369"/>
<path d="M179.079 166.084C178.802 166.084 178.545 166.045 178.307 165.967C178.073 165.885 177.87 165.77 177.697 165.623C177.524 165.476 177.392 165.305 177.301 165.11C177.266 165.041 177.264 164.978 177.295 164.922C177.329 164.862 177.385 164.82 177.463 164.799C177.524 164.782 177.582 164.788 177.639 164.818C177.699 164.849 177.745 164.894 177.775 164.955C177.84 165.08 177.935 165.193 178.06 165.292C178.186 165.392 178.335 165.47 178.508 165.526C178.681 165.578 178.872 165.604 179.079 165.604C179.309 165.604 179.512 165.567 179.69 165.493C179.867 165.415 180.005 165.305 180.105 165.162C180.209 165.015 180.261 164.838 180.261 164.63C180.261 164.366 180.163 164.139 179.969 163.949C179.774 163.758 179.469 163.637 179.053 163.585C178.547 163.525 178.151 163.369 177.866 163.118C177.58 162.862 177.437 162.551 177.437 162.183C177.437 161.919 177.507 161.69 177.645 161.495C177.788 161.3 177.983 161.151 178.229 161.047C178.476 160.939 178.759 160.885 179.079 160.885C179.317 160.885 179.534 160.924 179.728 161.002C179.923 161.075 180.092 161.175 180.235 161.3C180.382 161.422 180.501 161.556 180.592 161.703C180.635 161.772 180.648 161.839 180.631 161.904C180.618 161.969 180.581 162.019 180.52 162.053C180.455 162.084 180.388 162.088 180.319 162.066C180.254 162.045 180.204 162.004 180.17 161.943C180.105 161.843 180.023 161.75 179.923 161.664C179.828 161.573 179.711 161.502 179.573 161.45C179.434 161.398 179.268 161.37 179.073 161.365C178.731 161.365 178.456 161.439 178.249 161.586C178.041 161.729 177.937 161.939 177.937 162.216C177.937 162.363 177.976 162.499 178.054 162.624C178.132 162.746 178.259 162.852 178.437 162.943C178.619 163.029 178.861 163.094 179.164 163.137C179.705 163.215 180.105 163.382 180.365 163.637C180.628 163.888 180.76 164.217 180.76 164.624C180.76 164.857 180.717 165.065 180.631 165.247C180.548 165.428 180.429 165.582 180.274 165.707C180.122 165.829 179.943 165.922 179.735 165.987C179.532 166.051 179.313 166.084 179.079 166.084ZM183.364 166.051C183.013 166.051 182.702 165.976 182.429 165.824C182.161 165.669 181.949 165.454 181.793 165.182C181.642 164.909 181.566 164.598 181.566 164.247C181.566 163.892 181.637 163.581 181.78 163.312C181.927 163.04 182.129 162.826 182.384 162.67C182.639 162.514 182.933 162.436 183.267 162.436C183.595 162.436 183.881 162.512 184.123 162.663C184.37 162.811 184.56 163.016 184.694 163.28C184.829 163.544 184.896 163.845 184.896 164.182C184.896 164.251 184.874 164.308 184.831 164.351C184.787 164.39 184.731 164.409 184.662 164.409H181.904V163.994H184.714L184.435 164.195C184.439 163.944 184.394 163.719 184.299 163.52C184.203 163.321 184.067 163.165 183.89 163.053C183.717 162.94 183.509 162.884 183.267 162.884C183.02 162.884 182.804 162.943 182.617 163.059C182.431 163.176 182.286 163.338 182.183 163.546C182.083 163.75 182.033 163.983 182.033 164.247C182.033 164.511 182.09 164.745 182.202 164.948C182.319 165.151 182.477 165.312 182.676 165.428C182.875 165.545 183.104 165.604 183.364 165.604C183.52 165.604 183.675 165.578 183.831 165.526C183.991 165.47 184.119 165.4 184.214 165.318C184.262 165.279 184.316 165.26 184.376 165.26C184.437 165.255 184.489 165.27 184.532 165.305C184.588 165.357 184.617 165.413 184.617 165.474C184.621 165.534 184.597 165.586 184.545 165.63C184.402 165.751 184.221 165.852 184 165.935C183.779 166.013 183.567 166.051 183.364 166.051ZM185.994 167.538C185.916 167.538 185.854 167.514 185.806 167.466C185.763 167.423 185.741 167.363 185.741 167.285V164.221C185.745 163.884 185.825 163.581 185.981 163.312C186.141 163.04 186.356 162.826 186.624 162.67C186.896 162.514 187.201 162.436 187.539 162.436C187.885 162.436 188.195 162.516 188.467 162.676C188.74 162.832 188.954 163.046 189.11 163.319C189.27 163.592 189.35 163.901 189.35 164.247C189.35 164.589 189.272 164.896 189.116 165.169C188.965 165.441 188.757 165.658 188.493 165.818C188.229 165.974 187.931 166.051 187.597 166.051C187.308 166.051 187.044 165.991 186.806 165.87C186.572 165.744 186.384 165.58 186.241 165.376V167.285C186.241 167.363 186.217 167.423 186.169 167.466C186.126 167.514 186.068 167.538 185.994 167.538ZM187.539 165.597C187.79 165.597 188.015 165.539 188.214 165.422C188.413 165.305 188.569 165.145 188.681 164.942C188.798 164.734 188.857 164.502 188.857 164.247C188.857 163.987 188.798 163.756 188.681 163.553C188.569 163.349 188.413 163.189 188.214 163.072C188.015 162.951 187.79 162.891 187.539 162.891C187.292 162.891 187.07 162.951 186.87 163.072C186.671 163.189 186.516 163.349 186.403 163.553C186.291 163.756 186.234 163.987 186.234 164.247C186.234 164.502 186.291 164.734 186.403 164.942C186.516 165.145 186.671 165.305 186.87 165.422C187.07 165.539 187.292 165.597 187.539 165.597Z" fill="#5F6369"/>
<path d="M197.041 166.084C196.665 166.084 196.318 166.019 196.003 165.889C195.687 165.759 195.412 165.578 195.178 165.344C194.949 165.11 194.769 164.836 194.64 164.52C194.514 164.204 194.451 163.858 194.451 163.481C194.451 163.109 194.514 162.765 194.64 162.449C194.769 162.133 194.949 161.859 195.178 161.625C195.412 161.391 195.687 161.21 196.003 161.08C196.318 160.95 196.665 160.885 197.041 160.885C197.413 160.885 197.757 160.95 198.073 161.08C198.389 161.21 198.664 161.391 198.897 161.625C199.131 161.859 199.311 162.133 199.436 162.449C199.566 162.765 199.631 163.109 199.631 163.481C199.631 163.858 199.566 164.204 199.436 164.52C199.311 164.836 199.131 165.11 198.897 165.344C198.664 165.578 198.389 165.759 198.073 165.889C197.757 166.019 197.413 166.084 197.041 166.084ZM197.041 165.604C197.34 165.604 197.617 165.552 197.872 165.448C198.127 165.34 198.348 165.19 198.534 165C198.724 164.805 198.871 164.58 198.975 164.325C199.079 164.065 199.131 163.784 199.131 163.481C199.131 163.183 199.079 162.906 198.975 162.65C198.871 162.391 198.724 162.166 198.534 161.975C198.348 161.781 198.127 161.631 197.872 161.528C197.617 161.419 197.34 161.365 197.041 161.365C196.738 161.365 196.459 161.419 196.204 161.528C195.949 161.631 195.726 161.781 195.535 161.975C195.349 162.166 195.204 162.391 195.1 162.65C194.997 162.906 194.945 163.183 194.945 163.481C194.945 163.784 194.997 164.065 195.1 164.325C195.204 164.58 195.349 164.805 195.535 165C195.726 165.19 195.949 165.34 196.204 165.448C196.459 165.552 196.738 165.604 197.041 165.604ZM202.194 166.051C201.852 166.051 201.547 165.974 201.279 165.818C201.015 165.658 200.805 165.441 200.649 165.169C200.498 164.896 200.422 164.589 200.422 164.247C200.422 163.901 200.496 163.592 200.643 163.319C200.79 163.046 200.991 162.832 201.246 162.676C201.502 162.516 201.796 162.436 202.129 162.436C202.393 162.436 202.635 162.488 202.856 162.592C203.081 162.696 203.278 162.852 203.447 163.059C203.494 163.111 203.512 163.168 203.499 163.228C203.486 163.284 203.449 163.334 203.388 163.377C203.341 163.412 203.287 163.425 203.226 163.416C203.17 163.403 203.12 163.371 203.077 163.319C202.826 163.033 202.51 162.891 202.129 162.891C201.887 162.891 201.673 162.949 201.486 163.066C201.305 163.183 201.162 163.343 201.058 163.546C200.959 163.75 200.909 163.983 200.909 164.247C200.909 164.507 200.963 164.738 201.071 164.942C201.179 165.145 201.331 165.305 201.525 165.422C201.72 165.539 201.943 165.597 202.194 165.597C202.363 165.597 202.516 165.576 202.655 165.532C202.798 165.485 202.923 165.413 203.031 165.318C203.083 165.275 203.137 165.251 203.193 165.247C203.25 165.242 203.302 165.26 203.349 165.299C203.401 165.346 203.429 165.4 203.434 165.461C203.442 165.521 203.423 165.573 203.375 165.617C203.059 165.907 202.666 166.051 202.194 166.051ZM205.859 166.019C205.63 166.019 205.424 165.965 205.243 165.857C205.065 165.749 204.925 165.601 204.821 165.415C204.717 165.225 204.665 165.009 204.665 164.766V161.592C204.665 161.519 204.687 161.458 204.73 161.411C204.778 161.363 204.838 161.339 204.912 161.339C204.985 161.339 205.046 161.363 205.093 161.411C205.141 161.458 205.165 161.519 205.165 161.592V164.766C205.165 164.987 205.23 165.169 205.36 165.312C205.489 165.45 205.656 165.519 205.859 165.519H206.035C206.104 165.519 206.16 165.543 206.203 165.591C206.247 165.638 206.268 165.699 206.268 165.772C206.268 165.846 206.242 165.907 206.19 165.954C206.138 165.997 206.074 166.019 205.996 166.019H205.859ZM204.243 163.033C204.178 163.033 204.124 163.014 204.081 162.975C204.038 162.932 204.016 162.88 204.016 162.819C204.016 162.754 204.038 162.702 204.081 162.663C204.124 162.62 204.178 162.599 204.243 162.599H205.898C205.963 162.599 206.017 162.62 206.061 162.663C206.104 162.702 206.125 162.754 206.125 162.819C206.125 162.88 206.104 162.932 206.061 162.975C206.017 163.014 205.963 163.033 205.898 163.033H204.243Z" fill="#5F6369"/>
<path d="M211.57 166.019C211.496 166.019 211.436 165.995 211.388 165.948C211.34 165.9 211.317 165.839 211.317 165.766V161.203C211.317 161.129 211.34 161.069 211.388 161.021C211.436 160.974 211.496 160.95 211.57 160.95C211.648 160.95 211.712 160.98 211.764 161.041L214.867 165.117V161.203C214.867 161.129 214.891 161.069 214.938 161.021C214.986 160.974 215.046 160.95 215.12 160.95C215.189 160.95 215.248 160.974 215.295 161.021C215.347 161.069 215.373 161.129 215.373 161.203V165.766C215.373 165.839 215.347 165.9 215.295 165.948C215.248 165.995 215.189 166.019 215.12 166.019C215.085 166.019 215.051 166.013 215.016 166C214.982 165.987 214.953 165.965 214.932 165.935L211.823 161.859V165.766C211.823 165.839 211.797 165.9 211.745 165.948C211.697 165.995 211.639 166.019 211.57 166.019ZM218.224 166.051C217.878 166.051 217.568 165.974 217.296 165.818C217.023 165.662 216.809 165.448 216.653 165.175C216.497 164.903 216.419 164.593 216.419 164.247C216.419 163.897 216.497 163.585 216.653 163.312C216.809 163.04 217.023 162.826 217.296 162.67C217.568 162.514 217.878 162.436 218.224 162.436C218.57 162.436 218.877 162.514 219.145 162.67C219.418 162.826 219.632 163.04 219.788 163.312C219.944 163.585 220.024 163.897 220.028 164.247C220.028 164.593 219.948 164.903 219.788 165.175C219.632 165.448 219.418 165.662 219.145 165.818C218.877 165.974 218.57 166.051 218.224 166.051ZM218.224 165.597C218.475 165.597 218.7 165.539 218.899 165.422C219.098 165.305 219.254 165.145 219.366 164.942C219.479 164.738 219.535 164.507 219.535 164.247C219.535 163.987 219.479 163.756 219.366 163.553C219.254 163.345 219.098 163.183 218.899 163.066C218.7 162.949 218.475 162.891 218.224 162.891C217.973 162.891 217.748 162.949 217.549 163.066C217.35 163.183 217.192 163.345 217.075 163.553C216.962 163.756 216.906 163.987 216.906 164.247C216.906 164.507 216.962 164.738 217.075 164.942C217.192 165.145 217.35 165.305 217.549 165.422C217.748 165.539 217.973 165.597 218.224 165.597ZM222.017 166.019C221.914 166.019 221.836 165.963 221.784 165.85L220.343 162.793C220.317 162.737 220.315 162.681 220.336 162.624C220.358 162.568 220.401 162.525 220.466 162.495C220.527 162.464 220.585 162.46 220.641 162.482C220.698 162.503 220.741 162.542 220.771 162.599L222.154 165.591H221.888L223.251 162.599C223.277 162.538 223.32 162.499 223.38 162.482C223.445 162.46 223.508 162.462 223.569 162.488C223.629 162.518 223.67 162.564 223.692 162.624C223.714 162.681 223.711 162.735 223.685 162.787L222.264 165.85C222.212 165.963 222.13 166.019 222.017 166.019Z" fill="#5F6369"/>
<path d="M228.746 166.019C228.672 166.019 228.612 165.995 228.564 165.948C228.517 165.9 228.493 165.839 228.493 165.766V161.203C228.493 161.129 228.517 161.069 228.564 161.021C228.612 160.974 228.672 160.95 228.746 160.95H229.914C230.286 160.95 230.626 161.013 230.933 161.138C231.245 161.259 231.513 161.435 231.738 161.664C231.963 161.889 232.136 162.155 232.257 162.462C232.383 162.769 232.446 163.109 232.446 163.481C232.446 163.853 232.383 164.195 232.257 164.507C232.136 164.814 231.963 165.082 231.738 165.312C231.513 165.537 231.245 165.712 230.933 165.837C230.626 165.958 230.286 166.019 229.914 166.019H228.746ZM228.999 165.565H229.914C230.312 165.565 230.663 165.476 230.966 165.299C231.273 165.117 231.513 164.87 231.686 164.559C231.859 164.243 231.946 163.884 231.946 163.481C231.946 163.079 231.859 162.722 231.686 162.41C231.513 162.094 231.273 161.848 230.966 161.67C230.663 161.493 230.312 161.404 229.914 161.404H228.999V165.565ZM235.032 166.051C234.682 166.051 234.37 165.976 234.098 165.824C233.829 165.669 233.617 165.454 233.462 165.182C233.31 164.909 233.234 164.598 233.234 164.247C233.234 163.892 233.306 163.581 233.449 163.312C233.596 163.04 233.797 162.826 234.052 162.67C234.308 162.514 234.602 162.436 234.935 162.436C235.264 162.436 235.549 162.512 235.792 162.663C236.038 162.811 236.229 163.016 236.363 163.28C236.497 163.544 236.564 163.845 236.564 164.182C236.564 164.251 236.542 164.308 236.499 164.351C236.456 164.39 236.4 164.409 236.33 164.409H233.572V163.994H236.382L236.103 164.195C236.108 163.944 236.062 163.719 235.967 163.52C235.872 163.321 235.735 163.165 235.558 163.053C235.385 162.94 235.177 162.884 234.935 162.884C234.688 162.884 234.472 162.943 234.286 163.059C234.1 163.176 233.955 163.338 233.851 163.546C233.751 163.75 233.702 163.983 233.702 164.247C233.702 164.511 233.758 164.745 233.87 164.948C233.987 165.151 234.145 165.312 234.344 165.428C234.543 165.545 234.773 165.604 235.032 165.604C235.188 165.604 235.344 165.578 235.5 165.526C235.66 165.47 235.787 165.4 235.883 165.318C235.93 165.279 235.984 165.26 236.045 165.26C236.105 165.255 236.157 165.27 236.201 165.305C236.257 165.357 236.285 165.413 236.285 165.474C236.289 165.534 236.266 165.586 236.214 165.63C236.071 165.751 235.889 165.852 235.668 165.935C235.448 166.013 235.236 166.051 235.032 166.051ZM238.866 166.051C238.525 166.051 238.22 165.974 237.951 165.818C237.687 165.658 237.477 165.441 237.322 165.169C237.17 164.896 237.095 164.589 237.095 164.247C237.095 163.901 237.168 163.592 237.315 163.319C237.462 163.046 237.664 162.832 237.919 162.676C238.174 162.516 238.468 162.436 238.802 162.436C239.065 162.436 239.308 162.488 239.528 162.592C239.753 162.696 239.95 162.852 240.119 163.059C240.167 163.111 240.184 163.168 240.171 163.228C240.158 163.284 240.121 163.334 240.061 163.377C240.013 163.412 239.959 163.425 239.898 163.416C239.842 163.403 239.792 163.371 239.749 163.319C239.498 163.033 239.182 162.891 238.802 162.891C238.559 162.891 238.345 162.949 238.159 163.066C237.977 163.183 237.834 163.343 237.731 163.546C237.631 163.75 237.581 163.983 237.581 164.247C237.581 164.507 237.635 164.738 237.744 164.942C237.852 165.145 238.003 165.305 238.198 165.422C238.393 165.539 238.615 165.597 238.866 165.597C239.035 165.597 239.189 165.576 239.327 165.532C239.47 165.485 239.596 165.413 239.704 165.318C239.756 165.275 239.81 165.251 239.866 165.247C239.922 165.242 239.974 165.26 240.022 165.299C240.074 165.346 240.102 165.4 240.106 165.461C240.115 165.521 240.095 165.573 240.048 165.617C239.732 165.907 239.338 166.051 238.866 166.051Z" fill="#5F6369"/>
<path d="M36.7799 117.371C36.7799 115.578 38.2328 114.125 40.0252 114.125H43.9465C45.7389 114.125 47.1918 115.578 47.1918 117.371V147.66H36.7799V117.371Z" fill="#7788e2"/>
<path d="M54.7642 54.0878C54.7642 52.2955 56.2171 50.8425 58.0095 50.8425H61.9308C63.7232 50.8425 65.1761 52.2955 65.1761 54.0878V147.66H54.7642V54.0878Z" fill="#9e4fff"/>
<path d="M72.7484 91.9494C72.7484 90.1571 74.2014 88.7041 75.9937 88.7041H79.9151C81.7074 88.7041 83.1604 90.1571 83.1604 91.9494V147.66H72.7484V91.9494Z" fill="#7788e2"/>
<path d="M90.7327 132.516C90.7327 130.723 92.1857 129.27 93.978 129.27H97.8994C99.6917 129.27 101.145 130.723 101.145 132.516V147.66H90.7327V132.516Z" fill="#9e4fff"/>
<path d="M108.717 117.371C108.717 115.578 110.17 114.125 111.962 114.125H115.884C117.676 114.125 119.129 115.578 119.129 117.371V147.66H108.717V117.371Z" fill="#7788e2"/>
<path d="M126.701 78.4277C126.701 76.6353 128.154 75.1824 129.947 75.1824H133.868C135.66 75.1824 137.113 76.6353 137.113 78.4277V147.66H126.701V78.4277Z" fill="#9e4fff"/>
<path d="M144.686 104.39C144.686 102.597 146.139 101.145 147.931 101.145H151.852C153.645 101.145 155.097 102.597 155.097 104.39V147.66H144.686V104.39Z" fill="#7788e2"/>
<path d="M162.67 41.1069C162.67 39.3145 164.123 37.8616 165.915 37.8616H169.836C171.629 37.8616 173.082 39.3145 173.082 41.1069V147.66H162.67V41.1069Z" fill="#9e4fff"/>
<path d="M180.654 128.729C180.654 126.937 182.107 125.484 183.899 125.484H187.821C189.613 125.484 191.066 126.937 191.066 128.729V147.66H180.654V128.729Z" fill="#7788e2"/>
<path d="M198.638 91.9494C198.638 90.1571 200.091 88.7041 201.884 88.7041H205.805C207.597 88.7041 209.05 90.1571 209.05 91.9494V147.66H198.638V91.9494Z" fill="#9e4fff"/>
<path d="M216.623 104.39C216.623 102.597 218.076 101.145 219.868 101.145H223.789C225.582 101.145 227.035 102.597 227.035 104.39V147.66H216.623V104.39Z" fill="#7788e2"/>
<path d="M234.607 120.616C234.607 118.824 236.06 117.371 237.852 117.371H241.774C243.566 117.371 245.019 118.824 245.019 120.616V147.66H234.607V120.616Z" fill="#9e4fff"/>
</svg>
